<svg width="10" height="10" viewBox="0 0 10 10" fill="none" xmlns="http://www.w3.org/2000/svg">
<path d="M6.60714 2.32143L5 3.92857L3.39286 2.32143C3.19565 2.12422 2.87578 2.12422 2.67857 2.32143L2.32143 2.67857C2.12422 2.87578 2.12422 3.19565 2.32143 3.39286L3.92857 5L2.32143 6.60714C2.12422 6.80435 2.12422 7.12422 2.32143 7.32143L2.67857 7.67857C2.87578 7.87578 3.19565 7.87578 3.39286 7.67857L5 6.07143L6.60714 7.67857C6.80435 7.87578 7.12422 7.87578 7.32143 7.67857L7.67857 7.32143C7.87578 7.12422 7.87578 6.80435 7.67857 6.60714L6.07143 5L7.67857 3.39286C7.87578 3.19565 7.87578 2.87578 7.67857 2.67857L7.32143 2.32143C7.12422 2.12422 6.80435 2.12422 6.60714 2.32143Z" fill="#2A5A38"/>
</svg>
